<?xml version="1.0" standalone="no"?>
<!DOCTYPE svg PUBLIC "-//W3C//DTD SVG 20010904//EN"
 "http://www.w3.org/TR/2001/REC-SVG-20010904/DTD/svg10.dtd">
<svg version="1.0" xmlns="http://www.w3.org/2000/svg"
 width="1130.000000pt" height="221.000000pt" viewBox="0 0 1130.000000 221.000000"
 preserveAspectRatio="xMidYMid meet">

<g transform="translate(0.000000,221.000000) scale(0.100000,-0.100000)"
fill="#000000" stroke="none">
<path d="M3190 2110 c-88 -11 -205 -50 -282 -93 -78 -44 -174 -137 -212 -206
-31 -57 -29 -73 6 -47 175 128 297 173 488 183 65 3 139 1 171 -5 83 -16 208
-67 277 -113 75 -50 222 -206 222 -234 0 -6 8 -29 19 -51 40 -85 65 -261 58
-413 -3 -74 -2 -119 4 -115 5 3 7 9 4 14 -3 4 1 10 9 13 8 3 23 30 34 60 46
121 64 284 43 382 -5 22 -14 67 -21 100 -34 178 -193 371 -375 456 -129 59
-304 87 -445 69z"/>
<path d="M3849 2053 c241 -148 396 -474 361 -757 -27 -217 -111 -355 -294
-479 -109 -74 -220 -115 -416 -154 -24 -4 -24 -5 -5 -16 13 -8 70 -12 160 -12
118 1 151 4 209 23 90 30 182 77 190 97 3 9 11 15 18 13 23 -4 62 23 121 85
83 86 130 163 167 274 29 89 32 109 32 220 0 150 -25 260 -84 371 -114 217
-277 345 -464 367 l-59 7 64 -39z"/>
<path d="M2992 1760 c-96 -25 -215 -88 -285 -151 -107 -95 -215 -277 -242
-408 -58 -278 4 -513 175 -656 13 -11 21 -15 19 -10 -3 6 -10 21 -17 35 -109
234 -78 563 74 776 68 96 174 190 257 228 110 52 132 56 290 56 117 0 163 -4
225 -21 74 -20 187 -64 206 -81 6 -4 19 -8 30 -8 44 0 -119 138 -216 184 -161
74 -363 96 -516 56z"/>
<path d="M3155 1493 c-230 -93 -435 -413 -435 -678 0 -122 52 -282 130 -397
197 -292 602 -430 868 -296 58 29 54 42 -12 34 -228 -26 -544 127 -686 334
-94 137 -130 244 -130 384 0 103 13 166 55 266 54 128 111 216 200 308 33 34
58 62 55 61 -3 0 -23 -7 -45 -16z"/>
<path d="M7860 1395 c0 -41 -3 -75 -7 -75 -5 0 -17 7 -27 15 -29 22 -98 19
-130 -6 -73 -57 -75 -215 -3 -275 36 -30 97 -32 137 -4 28 20 28 20 33 0 4
-15 14 -20 41 -20 l36 0 0 220 0 220 -40 0 -40 0 0 -75z m-25 -130 c20 -19 25
-34 25 -75 0 -41 -5 -56 -25 -75 -13 -14 -33 -25 -45 -25 -11 0 -32 11 -45 25
-20 19 -25 34 -25 75 0 41 5 56 25 75 13 14 34 25 45 25 12 0 32 -11 45 -25z"/>
<path d="M4690 1415 l0 -35 101 0 100 0 -23 -32 c-12 -18 -60 -80 -105 -138
-71 -89 -83 -111 -83 -143 l0 -38 153 3 152 3 3 33 3 32 -105 0 c-58 0 -106 4
-106 8 0 5 45 66 100 136 88 112 100 132 100 167 l0 39 -145 0 -145 0 0 -35z"/>
<path d="M6078 1430 c-22 -12 -48 -38 -63 -63 -21 -37 -25 -56 -25 -120 0 -83
10 -117 49 -160 74 -82 233 -74 284 13 23 39 22 47 -12 65 -28 14 -30 14 -36
-5 -10 -32 -54 -60 -94 -60 -70 0 -111 53 -111 142 0 73 25 120 72 135 45 15
103 1 118 -27 13 -25 28 -25 58 -2 l23 18 -21 27 c-12 15 -35 34 -50 42 -42
22 -146 19 -192 -5z"/>
<path d="M7310 1240 l0 -211 138 3 137 3 3 33 3 32 -100 0 -101 0 0 60 0 60
85 0 85 0 0 30 0 30 -85 0 -85 0 0 50 0 50 95 0 95 0 0 35 0 35 -135 0 -135 0
0 -210z"/>
<path d="M7093 1413 c-18 -3 -23 -11 -23 -34 0 -24 -4 -29 -26 -29 -23 0 -25
-3 -22 -32 2 -25 8 -34 26 -36 21 -3 22 -7 22 -98 0 -92 1 -97 29 -125 24 -23
38 -29 73 -29 58 0 72 10 64 47 -6 26 -10 29 -40 25 -44 -5 -49 5 -52 100 l-3
78 43 0 c52 0 54 2 48 40 -4 28 -7 30 -49 30 -44 0 -44 0 -41 32 3 35 -5 40
-49 31z"/>
<path d="M5105 1331 c-50 -30 -69 -68 -70 -136 0 -72 18 -111 64 -142 44 -30
122 -31 169 -3 44 27 51 48 21 70 -23 18 -24 18 -53 -7 -47 -39 -112 -19 -118
37 l-3 25 103 3 102 3 0 35 c0 51 -24 101 -59 118 -41 22 -119 20 -156 -3z
m132 -70 c6 -14 10 -29 7 -33 -3 -4 -32 -8 -65 -8 -52 0 -59 2 -59 19 0 54 92
70 117 22z"/>
<path d="M5390 1189 l0 -160 38 3 37 3 5 107 c3 63 10 112 17 119 7 7 29 15
50 18 34 6 38 10 41 39 3 29 1 32 -26 32 -16 0 -41 -9 -55 -20 -14 -11 -28
-20 -31 -20 -3 0 -6 9 -6 20 0 16 -7 20 -35 20 l-35 0 0 -161z"/>
<path d="M5691 1332 c-19 -10 -43 -34 -53 -53 -22 -42 -24 -129 -3 -173 33
-69 140 -97 214 -55 50 28 63 52 68 129 5 79 -16 126 -68 152 -44 23 -115 23
-158 0z m123 -63 c22 -18 26 -28 26 -75 0 -45 -4 -59 -25 -79 -13 -14 -33 -25
-45 -25 -11 0 -32 11 -45 25 -20 19 -25 34 -25 75 0 41 5 56 25 75 30 30 54
31 89 4z"/>
<path d="M6462 1333 c-65 -32 -93 -148 -56 -227 22 -45 78 -76 138 -76 94 0
146 57 146 162 0 62 -24 115 -64 139 -39 24 -119 25 -164 2z m111 -52 c55 -21
57 -139 4 -176 -31 -21 -54 -19 -82 10 -21 20 -25 34 -25 79 0 47 4 57 26 75
30 23 42 25 77 12z"/>
<path d="M6804 1340 c-29 -12 -54 -49 -54 -81 0 -43 33 -74 99 -93 60 -17 80
-38 60 -62 -17 -20 -57 -17 -97 8 l-35 21 -18 -24 c-13 -18 -15 -27 -7 -37 49
-59 195 -54 228 7 5 11 10 35 10 54 0 44 -40 81 -97 90 -21 4 -47 13 -58 21
-16 12 -17 16 -6 30 15 18 48 21 87 6 21 -8 31 -7 45 6 26 23 24 31 -11 49
-31 16 -112 19 -146 5z"/>
<path d="M8030 1224 c0 -163 15 -193 97 -194 30 0 50 7 72 26 l31 26 0 -26 c0
-23 4 -26 35 -26 l35 0 0 160 0 160 -40 0 -40 0 0 -109 c0 -106 -1 -110 -26
-130 -31 -25 -44 -26 -70 -7 -16 13 -19 29 -22 130 l-4 116 -34 0 -34 0 0
-126z"/>
<path d="M4470 1077 c0 -37 -36 -133 -75 -201 -109 -190 -285 -331 -490 -393
-44 -13 -94 -17 -190 -17 -120 0 -135 2 -200 28 -185 76 -360 242 -451 429
l-36 72 6 -77 c12 -142 84 -283 211 -413 117 -120 220 -179 365 -210 310 -65
658 105 823 402 59 106 87 255 67 351 -12 53 -30 71 -30 29z"/>
<path d="M8284 886 c-4 -9 -20 -14 -50 -14 -57 1 -84 -22 -84 -72 0 -21 7 -43
15 -50 14 -11 13 -14 -1 -25 -12 -8 -15 -21 -12 -40 5 -21 0 -33 -16 -46 -20
-17 -20 -20 -6 -45 18 -32 66 -48 123 -41 58 8 87 31 87 71 0 43 -20 59 -83
66 -53 5 -79 30 -32 30 66 0 110 54 87 105 -8 18 -8 26 4 35 8 7 14 19 14 26
0 18 -39 18 -46 0z m-30 -62 c19 -19 20 -25 3 -48 -21 -28 -57 -13 -57 24 0
25 9 37 32 39 4 1 14 -6 22 -15z m26 -203 c0 -24 -30 -35 -70 -26 -21 5 -30
13 -30 26 0 16 7 19 50 19 43 0 50 -3 50 -19z"/>
<path d="M7764 866 c-17 -8 -39 -24 -48 -37 -19 -27 -21 -97 -5 -133 13 -28
64 -56 101 -56 41 0 86 36 99 80 30 101 -55 186 -147 146z m80 -58 c32 -45 8
-118 -38 -118 -33 0 -49 23 -49 72 0 64 55 92 87 46z"/>
<path d="M7970 760 l0 -110 30 0 30 0 0 74 c0 78 7 92 50 98 17 2 26 10 28 26
3 19 -1 22 -27 22 -16 0 -33 -4 -36 -10 -3 -5 -11 -10 -16 -10 -6 0 -7 5 -4
10 4 6 -7 10 -24 10 l-31 0 0 -110z"/>
<path d="M7586 695 c-15 -41 29 -68 57 -34 13 16 15 25 6 35 -15 19 -55 18
-63 -1z"/>
</g>
</svg>
